<?xml version="1.0" encoding="UTF-8" standalone="no"?>
<!-- Created with Inkscape (http://www.inkscape.org/) -->

<svg
   xmlns:dc="http://purl.org/dc/elements/1.1/"
   xmlns:cc="http://creativecommons.org/ns#"
   xmlns:rdf="http://www.w3.org/1999/02/22-rdf-syntax-ns#"
   xmlns:svg="http://www.w3.org/2000/svg"
   xmlns="http://www.w3.org/2000/svg"
   xmlns:sodipodi="http://sodipodi.sourceforge.net/DTD/sodipodi-0.dtd"
   xmlns:inkscape="http://www.inkscape.org/namespaces/inkscape"
   width="70mm"
   height="70mm"
   viewBox="0 0 248.03149 248.03149"
   id="svg4526"
   version="1.1"
   inkscape:version="0.91 r13725"
   sodipodi:docname="USER-PHOTO.svg">
  <defs
     id="defs4528" />
  <sodipodi:namedview
     id="base"
     pagecolor="#ffffff"
     bordercolor="#666666"
     borderopacity="1.0"
     inkscape:pageopacity="0.0"
     inkscape:pageshadow="2"
     inkscape:zoom="0.7"
     inkscape:cx="-72.233631"
     inkscape:cy="28.843943"
     inkscape:document-units="px"
     inkscape:current-layer="layer1"
     showgrid="false"
     inkscape:window-width="1920"
     inkscape:window-height="1017"
     inkscape:window-x="1358"
     inkscape:window-y="-8"
     inkscape:window-maximized="1" />
  <metadata
     id="metadata4531">
    <rdf:RDF>
      <cc:Work
         rdf:about="">
        <dc:format>image/svg+xml</dc:format>
        <dc:type
           rdf:resource="http://purl.org/dc/dcmitype/StillImage" />
        <dc:title></dc:title>
      </cc:Work>
    </rdf:RDF>
  </metadata>
  <g
     inkscape:label="Laag 1"
     inkscape:groupmode="layer"
     id="layer1"
     transform="translate(0,-804.33071)">
    <path
       style="opacity:1;fill:#030904;fill-opacity:1;fill-rule:nonzero;stroke:#000000;stroke-width:0.50507629;stroke-opacity:1"
       d="m 66.42344,1038.4313 c -2.2224,-0.2267 -4.7225,-0.6821 -5.5559,-1.012 -0.8334,-0.3299 -9.3384,-2.8569 -18.9001,-5.6157 -9.5617,-2.7588 -17.4523,-5.0834 -17.5347,-5.1657 -0.2391,-0.2392 2.2788,-42.5116 2.8639,-48.08137 2.2676,-21.58406 6.0483,-32.16101 14.8649,-41.58634 7.5909,-8.11487 14.9224,-11.77177 27.5448,-13.73911 5.5107,-0.85889 39.4433,-1.23111 47.6206,-0.52237 13.0001,1.12673 21.3056,3.10399 29.1231,6.93322 3.9457,1.93271 5.526,3.0883 9.1422,6.68524 9.4197,9.36932 13.7657,22.358 15.8544,47.38281 1.1656,13.96551 2.4884,42.59712 1.9903,43.07932 -0.9176,0.8884 -17.7367,5.5971 -23.3654,6.5414 -20.4406,3.4292 -70.2575,6.467 -83.6481,5.1006 z"
       id="path4293-4"
       inkscape:connector-curvature="0" />
    <ellipse
       style="opacity:1;fill:#000700;fill-opacity:1;fill-rule:nonzero;stroke:#000000;stroke-opacity:1"
       id="path4295-9"
       cx="96.961983"
       cy="878.81781"
       rx="40.658642"
       ry="38.327599" />
    <ellipse
       style="opacity:1;fill:#666666;fill-opacity:1;fill-rule:nonzero;stroke:#ffffff;stroke-width:7.51900005;stroke-miterlimit:4;stroke-dasharray:none;stroke-opacity:1"
       id="path4344-6"
       cx="184.93341"
       cy="954.12"
       rx="52.857143"
       ry="50.714287" />
    <g
       id="g3355"
       transform="matrix(0.1445783,0,0,0.11392534,116.09295,846.79353)">
      <rect
         ry="54.285713"
         y="775.50537"
         x="254.28572"
         height="354.28571"
         width="474.28571"
         id="rect4136"
         style="fill:#000000;stroke:none;stroke-width:5;stroke-linecap:round;stroke-linejoin:round;stroke-miterlimit:4;stroke-dasharray:none;stroke-opacity:1" />
      <circle
         r="134.28572"
         cy="946.93396"
         cx="525.71429"
         id="path4145"
         style="fill:#ffffff;stroke:none;stroke-width:5;stroke-linecap:round;stroke-linejoin:round;stroke-miterlimit:4;stroke-dasharray:none;stroke-opacity:1" />
      <circle
         r="107.14286"
         cy="948.36255"
         cx="527.14288"
         id="path4143"
         style="fill:#000000;stroke:none;stroke-width:5;stroke-linecap:round;stroke-linejoin:round;stroke-miterlimit:4;stroke-dasharray:none;stroke-opacity:1" />
      <circle
         style="fill:#ffffff;stroke:none;stroke-width:5;stroke-linecap:round;stroke-linejoin:round;stroke-miterlimit:4;stroke-dasharray:none;stroke-opacity:1"
         id="circle4147"
         cx="528.57147"
         cy="946.93396"
         r="91.428574" />
      <ellipse
         ry="100"
         rx="97.14286"
         cy="949.79114"
         cx="528.57153"
         id="circle4149"
         style="fill:#000000;stroke:none;stroke-width:5;stroke-linecap:round;stroke-linejoin:round;stroke-miterlimit:4;stroke-dasharray:none;stroke-opacity:1" />
      <path
         inkscape:connector-curvature="0"
         id="rect4157"
         d="m 464.19413,723.50477 c -1.40205,0 -2.67058,0.14404 -3.80778,0.40888 -9.00519,1.61287 -18.93608,7.85594 -23.77342,15.35917 l -18.3514,28.46502 c -5.63166,8.73529 -2.16279,15.76805 7.77783,15.76805 l 76.83722,0 63.10492,0 76.83602,0 c 9.94061,0 13.41068,-7.03276 7.77904,-15.76805 l -18.35141,-28.46502 c -4.83745,-7.5034 -14.76927,-13.74646 -23.77463,-15.35917 -1.13705,-0.26475 -2.40596,-0.40888 -3.80778,-0.40888 l -0.52645,0 -139.41449,0 -0.52767,0 z"
         style="fill:#000000;stroke:none;stroke-width:5;stroke-linecap:round;stroke-linejoin:round;stroke-miterlimit:4;stroke-dasharray:none;stroke-opacity:1" />
      <ellipse
         ry="30.000006"
         rx="31.428577"
         cy="822.64819"
         cx="317.14285"
         id="path4145-9"
         style="fill:#ffffff;stroke:none;stroke-width:5;stroke-linecap:round;stroke-linejoin:round;stroke-miterlimit:4;stroke-dasharray:none;stroke-opacity:1" />
    </g>
  </g>
</svg>
